<svg xmlns="http://www.w3.org/2000/svg" width="1200" height="700" viewBox="0 0 1200 700" role="img" aria-labelledby="title desc">
  <title id="title">Account Plan Generation Machine</title>
  <desc id="desc">Recurring and bulk account-plan generation flow with context, relationship mapping, whitespace analysis, and approval-gated play execution.</desc>
  <defs>
    <linearGradient id="bg" x1="0" y1="0" x2="1" y2="1">
      <stop offset="0%" stop-color="#f6fbff"/>
      <stop offset="100%" stop-color="#e8f3ff"/>
    </linearGradient>
    <marker id="arrow" markerWidth="10" markerHeight="10" refX="8" refY="3" orient="auto">
      <path d="M0,0 L8,3 L0,6 Z" fill="#2f5873"/>
    </marker>
    <style>
      .t{font:700 33px 'Inter', 'Segoe UI', sans-serif; fill:#1f3f54}
      .l{font:600 18px 'Inter', 'Segoe UI', sans-serif; fill:#2b5771}
      .m{font:500 14px 'Inter', 'Segoe UI', sans-serif; fill:#4f7086}
      .n{fill:#ffffff; stroke:#bdd7ea; stroke-width:2}
      .a{fill:#edf6ff; stroke:#90bbda; stroke-width:2}
      .g{fill:#fff3e7; stroke:#eca75f; stroke-width:2.5}
      .f{stroke:#2f5873; stroke-width:3; fill:none; marker-end:url(#arrow)}
      .p{stroke:#6d96b0; stroke-width:2.5; stroke-dasharray:10 8; fill:none}
    </style>
  </defs>

  <rect width="1200" height="700" fill="url(#bg)"/>
  <text x="60" y="72" class="t">Account Plan Generation Machine</text>

  <rect x="70" y="145" width="210" height="94" rx="14" class="n"/>
  <text x="100" y="188" class="l">Canonical Event</text>
  <text x="100" y="210" class="m">gtm_event_v1 intake</text>

  <rect x="320" y="145" width="250" height="94" rx="14" class="a"/>
  <text x="350" y="188" class="l">Context Enrichment</text>
  <text x="350" y="210" class="m">shared cogs + CRM graph</text>

  <rect x="610" y="145" width="230" height="94" rx="14" class="n"/>
  <text x="640" y="188" class="l">Relationship Map</text>
  <text x="640" y="210" class="m">champions, blockers, paths</text>

  <rect x="880" y="145" width="230" height="94" rx="14" class="g"/>
  <text x="910" y="188" class="l">Approval Loop</text>
  <text x="910" y="210" class="m">gate for write actions</text>

  <rect x="200" y="360" width="280" height="102" rx="14" class="n"/>
  <text x="230" y="408" class="l">Whitespace Analysis</text>
  <text x="230" y="430" class="m">coverage and expansion gaps</text>

  <rect x="530" y="360" width="280" height="102" rx="14" class="n"/>
  <text x="560" y="408" class="l">Play Generation</text>
  <text x="560" y="430" class="m">prioritized owner-ready plays</text>

  <rect x="860" y="360" width="280" height="102" rx="14" class="n"/>
  <text x="890" y="400" class="l">Plan Upsert + Emit</text>
  <text x="890" y="422" class="m">account.plan.generated</text>
  <text x="890" y="444" class="m">trace + audit metadata</text>

  <path d="M280 192 L320 192" class="f"/>
  <path d="M570 192 L610 192" class="f"/>
  <path d="M840 192 L880 192" class="f"/>
  <path d="M995 239 L995 360" class="f"/>

  <path d="M430 239 L430 360" class="p"/>
  <path d="M700 239 L700 360" class="p"/>

  <path d="M860 411 L810 411" class="f"/>
  <path d="M530 411 L480 411" class="f"/>

  <rect x="60" y="532" width="1080" height="62" rx="12" fill="#ffffff" stroke="#bdd7ea"/>
  <text x="82" y="558" class="m">Structured sections: context | relationship_map | whitespace | plays</text>
  <text x="82" y="580" class="m">Adapters: n8n, Zapier, Tray, Make, Agentic, Claude Routines, Claw-like</text>

  <rect x="60" y="612" width="1080" height="56" rx="12" fill="#ffffff" stroke="#bdd7ea"/>
  <text x="82" y="646" class="m">Legend: solid arrows = execution path, dashed = context sync, orange = approval-gated mutation boundary.</text>
</svg>
